<svg width="40" height="40" viewBox="0 0 40 40" fill="none" xmlns="http://www.w3.org/2000/svg">
<rect width="40" height="40" rx="20" fill="#FDF1F7"/>
<g clip-path="url(#clip0_102_586)">
<path d="M20 30C19.3403 30 18.7326 29.8351 18.1771 29.5052C17.6389 29.1927 17.2049 28.7674 16.875 28.2292C16.5625 27.6736 16.4063 27.066 16.4063 26.4062C16.4063 25.5729 16.5972 24.8785 16.9792 24.3229C17.3611 23.7674 17.9514 23.1163 18.75 22.3698C19.3403 21.8316 19.6354 21.3194 19.6354 20.8333V20.3646H19.1667C18.6285 20.3646 17.8906 20.9028 16.9531 21.9792C16.033 23.0556 14.9132 23.5937 13.5938 23.5937C12.934 23.5937 12.3264 23.4375 11.7708 23.125C11.2326 22.7951 10.7986 22.3611 10.4688 21.8229C10.1563 21.2674 10 20.6597 10 20C10 19.3403 10.1563 18.7413 10.4688 18.2031C10.7986 17.6476 11.2326 17.2135 11.7708 16.901C12.3264 16.5712 12.934 16.4063 13.5938 16.4063C14.8958 16.4063 16.0069 16.9358 16.9271 17.9948C17.8472 19.0538 18.5938 19.5833 19.1667 19.5833H19.6354V19.1667C19.6354 18.6806 19.3403 18.1684 18.75 17.6302L18.151 17.0833C17.717 16.684 17.3177 16.2066 16.9531 15.651C16.5885 15.0781 16.4063 14.3924 16.4063 13.5938C16.4063 12.934 16.5625 12.3351 16.875 11.7969C17.2049 11.2413 17.6389 10.8073 18.1771 10.4948C18.7326 10.1649 19.3403 10 20 10C20.6597 10 21.2587 10.1649 21.7969 10.4948C22.3524 10.8247 22.7865 11.2587 23.099 11.7969C23.4288 12.3351 23.5937 12.934 23.5937 13.5938C23.5937 14.8958 23.0642 16.0069 22.0052 16.9271C20.9462 17.8472 20.4167 18.5938 20.4167 19.1667V19.5833H20.8333C21.4236 19.5833 22.1701 19.0538 23.0729 17.9948C23.9583 16.9358 25.0694 16.4063 26.4063 16.4063C27.066 16.4063 27.6649 16.5712 28.2031 16.901C28.7587 17.2135 29.1927 17.6389 29.5052 18.1771C29.8351 18.7153 30 19.3229 30 20C30 20.6597 29.8351 21.2674 29.5052 21.8229C29.1927 22.3611 28.7587 22.7951 28.2031 23.125C27.6649 23.4375 27.066 23.5937 26.4063 23.5937C25.5903 23.5937 24.8872 23.3941 24.2969 22.9948C23.724 22.5955 23.0816 22.0139 22.3698 21.25C21.8316 20.6597 21.3194 20.3646 20.8333 20.3646H20.4167V20.8333C20.4167 21.4757 20.9462 22.2222 22.0052 23.0729C23.0642 23.9236 23.5937 25.0347 23.5937 26.4062C23.5937 27.066 23.4288 27.6736 23.099 28.2292C22.7865 28.7674 22.3611 29.1927 21.8229 29.5052C21.2847 29.8351 20.6771 30 20 30Z" fill="#973562"/>
</g>
<defs>
<clipPath id="clip0_102_586">
<rect width="20" height="20" fill="white" transform="translate(10 10)"/>
</clipPath>
</defs>
</svg>
