<svg width="40" height="40" viewBox="0 0 40 40" fill="none" xmlns="http://www.w3.org/2000/svg">
<rect width="40" height="40" rx="20" fill="#EEEDFD"/>
<g clip-path="url(#clip0_102_570)">
<path fill-rule="evenodd" clip-rule="evenodd" d="M12.6262 20C6.30563 27.5636 12.4365 33.6944 20 27.3738C27.5621 33.6944 33.6944 27.5578 27.3738 20C33.6944 12.4364 27.5621 6.30563 20 12.6262C12.4365 6.30563 6.30563 12.4364 12.6262 20ZM20 23.7C22.0435 23.7 23.7 22.0435 23.7 20C23.7 17.9566 22.0435 16.3 20 16.3C17.9566 16.3 16.3 17.9566 16.3 20C16.3 22.0435 17.9566 23.7 20 23.7Z" fill="#4409B9"/>
</g>
<defs>
<clipPath id="clip0_102_570">
<rect width="20" height="20" fill="white" transform="translate(10 10)"/>
</clipPath>
</defs>
</svg>
