<svg width="40" height="40" viewBox="0 0 40 40" fill="none" xmlns="http://www.w3.org/2000/svg">
<rect width="40" height="40" rx="20" fill="#FFEBEE"/>
<g clip-path="url(#clip0_102_572)">
<path d="M20.0254 30C19.71 30 19.4434 29.7716 19.367 29.4656C19.1235 28.4903 18.6574 27.4531 17.9688 26.3542C17.1528 25.0347 15.9896 23.8108 14.4792 22.6823C13.1655 21.6894 11.8518 21.0123 10.5381 20.6511C10.227 20.5656 10 20.2897 10 19.967C10 19.6507 10.2183 19.3779 10.5225 19.2911C11.8105 18.9233 13.0512 18.3263 14.2448 17.5C15.6163 16.5451 16.7622 15.3993 17.6823 14.0625C18.4963 12.8717 19.0551 11.6939 19.3586 10.5292C19.4382 10.2241 19.7068 10 20.0221 10C20.3409 10 20.6114 10.2291 20.689 10.5383C20.8642 11.2365 21.138 11.9512 21.5104 12.6823C21.9792 13.5851 22.5781 14.4531 23.3073 15.2865C24.0538 16.1024 24.8872 16.8403 25.8073 17.5C27.0097 18.3523 28.232 18.9511 29.4744 19.2964C29.7792 19.3811 30 19.6524 30 19.9687C30 20.2898 29.7725 20.5634 29.4629 20.6483C28.6754 20.8642 27.8648 21.2124 27.0313 21.6927C26.0243 22.283 25.0868 22.9861 24.2187 23.8021C23.3507 24.6007 22.6389 25.4427 22.0833 26.3281C21.3933 27.4293 20.9267 28.4745 20.6837 29.4639C20.6083 29.7708 20.3413 30 20.0254 30Z" fill="#BD0F2C"/>
</g>
<defs>
<clipPath id="clip0_102_572">
<rect width="20" height="20" fill="white" transform="translate(10 10)"/>
</clipPath>
</defs>
</svg>
