<svg width="40" height="40" viewBox="0 0 40 40" fill="none" xmlns="http://www.w3.org/2000/svg">
<rect width="40" height="40" rx="20" fill="#E7F9F3"/>
<g clip-path="url(#clip0_102_576)">
<path fill-rule="evenodd" clip-rule="evenodd" d="M20 20C20 20 21.25 16.6527 21.25 14.2857C21.25 11.9188 20.6904 10 20 10C19.3096 10 18.75 11.9188 18.75 14.2857C18.75 16.6527 20 20 20 20ZM20 20C20 20 21.4831 23.2508 23.1567 24.9245C24.8304 26.5982 26.5829 27.5592 27.0711 27.0711C27.5592 26.5829 26.5982 24.8304 24.9245 23.1567C23.2508 21.4831 20 20 20 20ZM20 20C20 20 23.3474 18.75 25.7143 18.75C28.0812 18.75 30 19.3096 30 20C30 20.6904 28.0812 21.25 25.7143 21.25C23.3474 21.25 20 20 20 20ZM20 20C20 20 16.7492 21.4831 15.0755 23.1567C13.4018 24.8304 12.4408 26.5829 12.9289 27.0711C13.4171 27.5592 15.1696 26.5982 16.8433 24.9245C18.517 23.2508 20 20 20 20ZM20 20C20.0028 20.0074 21.25 23.35 21.25 25.7143C21.25 28.0812 20.6904 30 20 30C19.3096 30 18.75 28.0812 18.75 25.7143C18.75 23.3474 20 20 20 20ZM20 20C20 20 16.6527 18.75 14.2857 18.75C11.9188 18.75 10 19.3096 10 20C10 20.6904 11.9188 21.25 14.2857 21.25C16.6527 21.25 20 20 20 20ZM20 20C20 20 23.2508 18.5169 24.9245 16.8433C26.5982 15.1696 27.5592 13.4171 27.0711 12.9289C26.5829 12.4408 24.8304 13.4018 23.1567 15.0755C21.4831 16.7492 20 20 20 20ZM16.8433 15.0755C18.517 16.7492 20 20 20 20C20 20 16.7492 18.517 15.0755 16.8433C13.4018 15.1696 12.4408 13.4171 12.9289 12.9289C13.4171 12.4408 15.1696 13.4018 16.8433 15.0755Z" fill="#216E55"/>
</g>
<defs>
<clipPath id="clip0_102_576">
<rect width="20" height="20" fill="white" transform="translate(10 10)"/>
</clipPath>
</defs>
</svg>
