<svg width="40" height="40" viewBox="0 0 40 40" fill="none" xmlns="http://www.w3.org/2000/svg">
<rect width="40" height="40" rx="20" fill="#ECFAFE"/>
<g clip-path="url(#clip0_102_580)">
<path d="M19.368 10.5155C19.7359 10.2154 20.2641 10.2154 20.632 10.5155L21.4253 11.1625C21.675 11.3661 22.0074 11.437 22.3183 11.3529L23.3039 11.0865C23.7616 10.9628 24.2432 11.1775 24.4572 11.6006L24.9229 12.5215C25.0679 12.8081 25.3416 13.0077 25.6588 13.0579L26.6717 13.2184C27.1384 13.2923 27.4897 13.6829 27.5139 14.1548L27.5672 15.1938C27.5836 15.5133 27.7519 15.8057 28.0199 15.9803L28.8865 16.5452C29.2811 16.8025 29.4427 17.3003 29.2743 17.7404L28.9015 18.7147C28.7874 19.0127 28.8225 19.3473 28.9958 19.6153L29.5618 20.4899C29.8175 20.8852 29.7629 21.4053 29.4306 21.7389L28.6976 22.4748C28.4722 22.7011 28.3684 23.0214 28.4184 23.3369L28.5815 24.3668C28.6552 24.8327 28.3933 25.2868 27.9531 25.4564L26.9921 25.8264C26.693 25.9416 26.4672 26.1931 26.3849 26.5029L26.1188 27.5047C25.9973 27.9623 25.5716 28.2719 25.0989 28.2466L24.078 28.192C23.7567 28.1748 23.4468 28.3132 23.2452 28.5639L22.6014 29.3647C22.304 29.7346 21.7876 29.8445 21.3653 29.6277L20.4567 29.1612C20.17 29.0141 19.83 29.0141 19.5433 29.1612L18.6347 29.6277C18.2124 29.8445 17.696 29.7346 17.3986 29.3647L16.7548 28.5639C16.5532 28.3132 16.2433 28.1748 15.922 28.192L14.9011 28.2466C14.4284 28.2719 14.0027 27.9623 13.8812 27.5047L13.6151 26.5029C13.5328 26.1931 13.307 25.9416 13.0079 25.8264L12.0469 25.4564C11.6067 25.2868 11.3448 24.8327 11.4186 24.3668L11.5816 23.3369C11.6316 23.0214 11.5278 22.7011 11.3024 22.4748L10.5694 21.7389C10.2371 21.4053 10.1825 20.8852 10.4383 20.4899L11.0042 19.6153C11.1775 19.3473 11.2126 19.0127 11.0985 18.7147L10.7257 17.7404C10.5573 17.3003 10.7189 16.8025 11.1135 16.5452L11.9801 15.9803C12.2481 15.8057 12.4164 15.5133 12.4328 15.1938L12.4861 14.1548C12.5103 13.6829 12.8616 13.2923 13.3283 13.2184L14.3412 13.0579C14.6584 13.0077 14.9321 12.8081 15.0771 12.5215L15.5428 11.6006C15.7568 11.1775 16.2384 10.9628 16.6961 11.0865L17.6817 11.3529C17.9926 11.437 18.325 11.3661 18.5747 11.1625L19.368 10.5155Z" fill="#1F84A3"/>
</g>
<defs>
<clipPath id="clip0_102_580">
<rect width="20" height="20" fill="white" transform="translate(10 10)"/>
</clipPath>
</defs>
</svg>
