<svg width="40" height="40" viewBox="0 0 40 40" fill="none" xmlns="http://www.w3.org/2000/svg">
<rect width="40" height="40" rx="20" fill="#F2FFD1"/>
<g clip-path="url(#clip0_102_582)">
<path fill-rule="evenodd" clip-rule="evenodd" d="M12.9289 12.9289C11.9266 13.9313 11.5646 15.3315 11.8429 16.6212C10.7341 17.3364 10 18.5825 10 20C10 21.4175 10.7341 22.6636 11.8429 23.3788C11.5646 24.6685 11.9266 26.0687 12.9289 27.0711C13.9313 28.0734 15.3315 28.4354 16.6212 28.1571C17.3364 29.2659 18.5825 30 20 30C21.4175 30 22.6636 29.2659 23.3788 28.1571C24.6685 28.4354 26.0687 28.0734 27.0711 27.0711C28.0734 26.0687 28.4354 24.6685 28.1571 23.3788C29.2659 22.6636 30 21.4175 30 20C30 18.5825 29.2659 17.3364 28.1571 16.6212C28.4354 15.3315 28.0734 13.9313 27.0711 12.9289C26.0687 11.9266 24.6685 11.5646 23.3788 11.8429C22.6636 10.7341 21.4175 10 20 10C18.5825 10 17.3364 10.7341 16.6212 11.8429C15.3315 11.5646 13.9313 11.9266 12.9289 12.9289Z" fill="#526E0C"/>
</g>
<defs>
<clipPath id="clip0_102_582">
<rect width="20" height="20" fill="white" transform="translate(10 10)"/>
</clipPath>
</defs>
</svg>
