<svg width="40" height="40" viewBox="0 0 40 40" fill="none" xmlns="http://www.w3.org/2000/svg">
<rect width="40" height="40" rx="20" fill="#FFF7E0"/>
<g clip-path="url(#clip0_102_584)">
<path fill-rule="evenodd" clip-rule="evenodd" d="M18.2019 23.0784C12.8151 32.3072 27.1923 32.3072 21.7981 23.0784C30.0122 32.3072 32.3074 30.0161 23.0779 21.7986C32.3074 27.1856 32.3074 12.8077 23.0779 18.2022C32.3074 9.98464 30.0153 7.69252 21.7981 16.9223C27.1849 7.69252 12.8077 7.69252 18.2019 16.9223C9.98467 7.69252 7.69263 9.98464 16.9221 18.2022C7.69263 12.8151 7.69263 27.193 16.9221 21.7986C7.69263 30.0161 9.98467 32.3072 18.2019 23.0784ZM20 22.5C21.3807 22.5 22.5 21.3807 22.5 20C22.5 18.6193 21.3807 17.5 20 17.5C18.6193 17.5 17.5 18.6193 17.5 20C17.5 21.3807 18.6193 22.5 20 22.5Z" fill="#935F10"/>
</g>
<defs>
<clipPath id="clip0_102_584">
<rect width="20" height="20" fill="white" transform="translate(10 10)"/>
</clipPath>
</defs>
</svg>
